<svg width="20" height="20" viewBox="0 0 20 20" fill="none" xmlns="http://www.w3.org/2000/svg">
<path d="M6.15383 7.94889C7.99478 7.94889 9.48716 6.45651 9.48716 4.61556C9.48716 2.77461 7.99478 1.28223 6.15383 1.28223C4.31288 1.28223 2.8205 2.77461 2.8205 4.61556C2.8205 6.45651 4.31288 7.94889 6.15383 7.94889Z" fill="#ABCEFB"/>
<path d="M13.8462 15.6408C15.6871 15.6408 17.1795 14.1484 17.1795 12.3075C17.1795 10.4665 15.6871 8.97412 13.8462 8.97412C12.0052 8.97412 10.5128 10.4665 10.5128 12.3075C10.5128 14.1484 12.0052 15.6408 13.8462 15.6408Z" fill="#0034BD"/>
<path d="M9.48716 8.97412H2.8205V15.6408H9.48716V8.97412Z" fill="#0A61F7"/>
<path d="M10.5128 1.28223C14.1947 1.28223 17.1795 4.267 17.1795 7.94889H10.5128V1.28223Z" fill="#6EA7FC"/>
<path d="M17.1795 16.6665H2.8205V18.7178H17.1795V16.6665Z" fill="#ABCEFB"/>
</svg>
