<svg width="20" height="20" viewBox="0 0 20 20" fill="none" xmlns="http://www.w3.org/2000/svg">
<path d="M9.23076 16.4102C13.1959 16.4102 16.4102 13.1959 16.4102 9.23076C16.4102 5.26564 13.1959 2.05127 9.23076 2.05127C5.26564 2.05127 2.05127 5.26564 2.05127 9.23076C2.05127 13.1959 5.26564 16.4102 9.23076 16.4102Z" fill="#FF9A7D"/>
<path d="M14.6154 17.9489C16.4563 17.9489 17.9487 16.4565 17.9487 14.6156C17.9487 12.7746 16.4563 11.2822 14.6154 11.2822C12.7744 11.2822 11.282 12.7746 11.282 14.6156C11.282 16.4565 12.7744 17.9489 14.6154 17.9489Z" fill="#FED7C7"/>
<path d="M9.23076 2.05127H2.05127V9.23076H9.23076V2.05127Z" fill="#C5461E"/>
</svg>
