<svg width="20" height="20" viewBox="0 0 20 20" fill="none" xmlns="http://www.w3.org/2000/svg">
<path d="M17.1795 7.17969H2.8205V9.23097H17.1795V7.17969Z" fill="#FFD56B"/>
<path d="M2.8205 10.2563C2.8205 11.1992 3.00619 12.1328 3.36701 13.0038C3.7278 13.8749 4.25665 14.6663 4.92332 15.333C5.58998 15.9997 6.38144 16.5285 7.25252 16.8893C8.12357 17.2501 9.05716 17.4358 9.99998 17.4358C10.9428 17.4358 11.8764 17.2501 12.7474 16.8893C13.6185 16.5285 14.41 15.9997 15.0766 15.333C15.7433 14.6663 16.2722 13.8749 16.633 13.0038C16.9938 12.1328 17.1795 11.1992 17.1795 10.2563H9.99998H2.8205Z" fill="#FEC33E"/>
<path d="M6.66669 6.15365C6.66669 5.7159 6.75292 5.28244 6.92043 4.87803C7.08794 4.47362 7.33348 4.10616 7.64299 3.79662C7.95253 3.48708 8.31999 3.24157 8.72441 3.07406C9.12882 2.90654 9.56228 2.82031 10 2.82031C10.4378 2.82031 10.8712 2.90654 11.2756 3.07406C11.68 3.24157 12.0475 3.48711 12.357 3.79662C12.6666 4.10616 12.9121 4.47362 13.0796 4.87803C13.2471 5.28247 13.3334 5.7159 13.3334 6.15365H10H6.66669Z" fill="#D98822"/>
</svg>
